<svg width="24" height="24" viewBox="0 0 24 24" fill="none" xmlns="http://www.w3.org/2000/svg">
<path d="M7.12615 0.5H16.8739C17.2388 0.5 17.5889 0.645392 17.8469 0.904193C18.105 1.16299 18.25 1.514 18.25 1.88V22.12C18.25 22.486 18.105 22.837 17.8469 23.0958C17.5889 23.3546 17.2388 23.5 16.8739 23.5H7.12615C6.76117 23.5 6.41114 23.3546 6.15306 23.0958C5.89499 22.837 5.75 22.486 5.75 22.12V1.88C5.75 1.514 5.89499 1.16299 6.15306 0.904193C6.41114 0.645392 6.76117 0.5 7.12615 0.5Z" fill="#FAFAFA"/>
<path d="M18.1926 21.4301H5.80729V21.3151H18.1926V21.4301Z" fill="#4C3F37"/>
<path d="M7.12615 0.615C6.79158 0.615 6.47073 0.748276 6.23415 0.98551C5.99758 1.22274 5.86468 1.5445 5.86468 1.88V22.12C5.86468 22.4555 5.99758 22.7773 6.23415 23.0145C6.47073 23.2517 6.79158 23.385 7.12615 23.385H16.8739C17.2084 23.385 17.5293 23.2517 17.7658 23.0145C18.0024 22.7773 18.1353 22.4555 18.1353 22.12V1.88C18.1353 1.5445 18.0024 1.22274 17.7658 0.98551C17.5293 0.748276 17.2084 0.615 16.8739 0.615H7.12615ZM7.12615 0.5H16.8739C17.2388 0.5 17.5889 0.645392 17.8469 0.904193C18.105 1.16299 18.25 1.514 18.25 1.88V22.12C18.25 22.486 18.105 22.837 17.8469 23.0958C17.5889 23.3546 17.2388 23.5 16.8739 23.5H7.12615C6.76117 23.5 6.41114 23.3546 6.15306 23.0958C5.89499 22.837 5.75 22.486 5.75 22.12V1.88C5.75 1.514 5.89499 1.16299 6.15306 0.904193C6.41114 0.645392 6.76117 0.5 7.12615 0.5Z" fill="#4C3F37"/>
<path d="M15.6957 3.84035H8.30412C7.98014 3.84035 7.71749 4.10397 7.71749 4.42918V8.90429C7.71749 9.2295 7.98014 9.49312 8.30412 9.49312H15.6957C16.0197 9.49312 16.2823 9.2295 16.2823 8.90429V4.42918C16.2823 4.10397 16.0197 3.84035 15.6957 3.84035Z" fill="#F2F2F2"/>
<path d="M8.30412 3.89923C8.16415 3.89938 8.02995 3.95527 7.93097 4.05462C7.83199 4.15397 7.77631 4.28867 7.77616 4.42918V8.90429C7.77631 9.0448 7.83199 9.1795 7.93097 9.27885C8.02995 9.3782 8.16415 9.43408 8.30412 9.43424H15.6957C15.8357 9.43408 15.9699 9.3782 16.0688 9.27885C16.1678 9.1795 16.2235 9.0448 16.2236 8.90429V4.42918C16.2235 4.28867 16.1678 4.15397 16.0688 4.05462C15.9699 3.95527 15.8357 3.89938 15.6957 3.89923H8.30412ZM8.30412 3.84035H15.6957C15.8513 3.84035 16.0005 3.90238 16.1105 4.01281C16.2205 4.12324 16.2823 4.27301 16.2823 4.42918V8.90429C16.2823 8.98162 16.2671 9.05819 16.2377 9.12963C16.2082 9.20107 16.165 9.26598 16.1105 9.32066C16.056 9.37534 15.9913 9.41871 15.9202 9.4483C15.849 9.47789 15.7727 9.49312 15.6957 9.49312H8.30412C8.22709 9.49312 8.1508 9.47789 8.07963 9.4483C8.00846 9.41871 7.94379 9.37534 7.88931 9.32066C7.83484 9.26598 7.79163 9.20107 7.76215 9.12963C7.73267 9.05819 7.71749 8.98162 7.71749 8.90429V4.42918C7.71749 4.27301 7.7793 4.12324 7.88931 4.01281C7.99933 3.90238 8.14854 3.84035 8.30412 3.84035Z" fill="#4C3F37"/>
<path d="M9.94731 4.66471H9.0087C8.8791 4.66471 8.77404 4.77016 8.77404 4.90024V5.84237C8.77404 5.97245 8.8791 6.0779 9.0087 6.0779H9.94731C10.0769 6.0779 10.182 5.97245 10.182 5.84237V4.90024C10.182 4.77016 10.0769 4.66471 9.94731 4.66471Z" fill="white"/>
<path d="M9.0087 4.72359C8.96202 4.72359 8.91726 4.7422 8.88425 4.77533C8.85125 4.80846 8.83271 4.85339 8.83271 4.90024V5.84237C8.83271 5.88922 8.85125 5.93415 8.88425 5.96728C8.91726 6.00041 8.96202 6.01902 9.0087 6.01902H9.94731C9.99398 6.01902 10.0387 6.00041 10.0717 5.96728C10.1048 5.93415 10.1233 5.88922 10.1233 5.84237V4.90024C10.1233 4.85339 10.1048 4.80846 10.0717 4.77533C10.0387 4.7422 9.99398 4.72359 9.94731 4.72359H9.0087ZM9.0087 4.66471H9.94731C10.0095 4.66471 10.0692 4.68952 10.1132 4.7337C10.1572 4.77787 10.182 4.83777 10.182 4.90024V5.84237C10.182 5.90484 10.1572 5.96475 10.1132 6.00892C10.0692 6.05309 10.0095 6.0779 9.94731 6.0779H9.0087C8.94646 6.0779 8.88678 6.05309 8.84277 6.00892C8.79877 5.96475 8.77404 5.90484 8.77404 5.84237V4.90024C8.77404 4.83777 8.79877 4.77787 8.84277 4.7337C8.88678 4.68952 8.94646 4.66471 9.0087 4.66471Z" fill="#4C3F37"/>
<path d="M7.71749 7.02003H16.2823V8.1977H7.71749V7.02003Z" fill="#4C3F37"/>
<path d="M14.3333 12.8335C14.7015 12.8335 15 13.1319 15 13.5001V18.1668C15 18.535 14.7015 18.8335 14.3333 18.8335H9.66665C9.29846 18.8335 8.99998 18.535 8.99998 18.1668V13.5001C8.99998 13.1319 9.29846 12.8335 9.66665 12.8335H14.3333ZM10.0071 15.1349V16.6668H10.3245V16.1674H10.5996C10.9529 16.1674 11.1561 15.9579 11.1561 15.6512C11.1561 15.3486 10.9571 15.1349 10.6081 15.1349H10.0071ZM11.6237 15.1349L11.0926 16.6668H11.4354L11.5517 16.3134H12.1061L12.2204 16.6668H12.561L12.032 15.1349H11.6237ZM12.4848 15.1349L13.0434 16.1209V16.6668H13.3608V16.1209L13.9194 15.1349H13.5618L13.2106 15.795H13.1958L12.8424 15.1349H12.4848ZM11.8332 15.4798L12.0257 16.0659H11.6321L11.8226 15.4798H11.8332ZM10.5488 15.3951C10.7371 15.3952 10.8281 15.4988 10.8281 15.6512C10.8281 15.8056 10.7371 15.9114 10.5488 15.9114H10.3245V15.3951H10.5488Z" fill="#4C3F37"/>
</svg>
