<svg width="248" height="248" viewBox="0 0 248 248" fill="none" xmlns="http://www.w3.org/2000/svg">
<g clip-path="url(#clip0_6024_94682)">
<circle cx="124" cy="124" r="124" fill="#E6E6E6"/>
<mask id="mask0_6024_94682" style="mask-type:alpha" maskUnits="userSpaceOnUse" x="0" y="0" width="248" height="248">
<circle cx="124" cy="124" r="123.5" fill="#E6E6E6" stroke="black"/>
</mask>
<g mask="url(#mask0_6024_94682)">
<path d="M199.655 102.996H48.3447C45.3929 102.996 43 105.405 43 108.377V140.446C43 143.417 45.3929 145.826 48.3447 145.826H199.655C202.607 145.826 205 143.417 205 140.446V108.377C205 105.405 202.607 102.996 199.655 102.996Z" fill="#757575"/>
<path d="M199.656 144.074L199.655 145.826H48.3447L48.3446 144.074H199.656ZM203.259 140.446V108.377C203.259 106.374 201.646 104.749 199.656 104.749H48.3446C46.354 104.749 44.7408 106.373 44.7407 108.377V140.446C44.7409 142.449 46.3541 144.074 48.3446 144.074L48.3447 145.826L48.0698 145.82C45.3369 145.68 43.1454 143.474 43.0068 140.723L43 140.446V108.377C43 105.405 45.3929 102.996 48.3447 102.996H199.655C202.607 102.996 205 105.405 205 108.377V140.446L204.993 140.723C204.85 143.566 202.515 145.826 199.655 145.826L199.656 144.074C201.646 144.074 203.259 142.449 203.259 140.446Z" fill="black"/>
<path d="M182.812 116.901H65.1833C64.3783 116.901 63.7257 117.558 63.7257 118.368V130.259C63.7257 131.069 64.3783 131.726 65.1833 131.726H182.812C183.617 131.726 184.27 131.069 184.27 130.259V118.368C184.27 117.558 183.617 116.901 182.812 116.901Z" fill="black"/>
<path d="M170.458 110.582V111.131C170.458 112.482 171.546 113.577 172.888 113.577H181.84C183.182 113.577 184.27 112.482 184.27 111.131V110.582C184.27 109.231 183.182 108.136 181.84 108.136H172.888C171.546 108.136 170.458 109.231 170.458 110.582Z" fill="white"/>
<path d="M86.4492 34H162.229C165.066 34 167.787 35.1379 169.793 37.1632C171.8 39.1886 172.927 41.9357 172.927 44.8V203.2C172.927 206.064 171.8 208.811 169.793 210.837C167.787 212.862 165.066 214 162.229 214H86.4492C83.6119 214 80.8907 212.862 78.8844 210.837C76.8781 208.811 75.751 206.064 75.751 203.2V44.8C75.751 41.9357 76.8781 39.1886 78.8844 37.1632C80.8907 35.1379 83.6119 34 86.4492 34Z" fill="#FAFAFA"/>
<path d="M172.481 197.801H76.1964V196.901H172.481V197.801Z" fill="#4C3F37"/>
<path d="M86.4492 34.9C83.8483 34.9 81.3539 35.943 79.5148 37.7996C77.6757 39.6563 76.6425 42.1744 76.6425 44.8V203.2C76.6425 205.826 77.6757 208.344 79.5148 210.2C81.3539 212.057 83.8483 213.1 86.4492 213.1H162.229C164.83 213.1 167.324 212.057 169.163 210.2C171.002 208.344 172.035 205.826 172.035 203.2V44.8C172.035 42.1744 171.002 39.6563 169.163 37.7996C167.324 35.943 164.83 34.9 162.229 34.9H86.4492ZM86.4492 34H162.229C165.066 34 167.787 35.1379 169.793 37.1632C171.8 39.1886 172.927 41.9357 172.927 44.8V203.2C172.927 206.064 171.8 208.811 169.793 210.837C167.787 212.862 165.066 214 162.229 214H86.4492C83.6119 214 80.8907 212.862 78.8844 210.837C76.8781 208.811 75.751 206.064 75.751 203.2V44.8C75.751 41.9357 76.8781 39.1886 78.8844 37.1632C80.8907 35.1379 83.6119 34 86.4492 34Z" fill="#4C3F37"/>
<path d="M153.069 60.1418H95.6069C93.0882 60.1418 91.0464 62.205 91.0464 64.7501V99.7727C91.0464 102.318 93.0882 104.381 95.6069 104.381H153.069C155.588 104.381 157.63 102.318 157.63 99.7727V64.7501C157.63 62.205 155.588 60.1418 153.069 60.1418Z" fill="#F2F2F2"/>
<path d="M95.6069 60.6027C94.5187 60.6039 93.4754 61.0412 92.706 61.8188C91.9365 62.5963 91.5037 63.6505 91.5025 64.7501V99.7727C91.5037 100.872 91.9365 101.927 92.706 102.704C93.4754 103.482 94.5187 103.919 95.6069 103.92H153.069C154.158 103.919 155.201 103.482 155.97 102.704C156.74 101.927 157.173 100.872 157.174 99.7727V64.7501C157.173 63.6505 156.74 62.5963 155.97 61.8188C155.201 61.0412 154.158 60.6039 153.069 60.6027H95.6069ZM95.6069 60.1418H153.069C154.279 60.1418 155.439 60.6273 156.294 61.4916C157.149 62.3558 157.63 63.5279 157.63 64.7501V99.7727C157.63 100.378 157.512 100.977 157.283 101.536C157.054 102.095 156.718 102.603 156.294 103.031C155.871 103.459 155.368 103.799 154.815 104.03C154.261 104.262 153.668 104.381 153.069 104.381H95.6069C95.008 104.381 94.415 104.262 93.8617 104.03C93.3084 103.799 92.8056 103.459 92.3822 103.031C91.9587 102.603 91.6227 102.095 91.3936 101.536C91.1644 100.977 91.0464 100.378 91.0464 99.7727V64.7501C91.0464 63.5279 91.5269 62.3558 92.3822 61.4916C93.2374 60.6273 94.3974 60.1418 95.6069 60.1418Z" fill="#4C3F37"/>
<path d="M108.381 66.5934H101.084C100.077 66.5934 99.2601 67.4186 99.2601 68.4367V75.8099C99.2601 76.8279 100.077 77.6532 101.084 77.6532H108.381C109.389 77.6532 110.205 76.8279 110.205 75.8099V68.4367C110.205 67.4186 109.389 66.5934 108.381 66.5934Z" fill="white"/>
<path d="M101.084 67.0542C100.721 67.0542 100.373 67.1999 100.117 67.4591C99.8603 67.7184 99.7162 68.07 99.7162 68.4367V75.8099C99.7162 76.1765 99.8603 76.5282 100.117 76.7874C100.373 77.0467 100.721 77.1923 101.084 77.1923H108.381C108.744 77.1923 109.092 77.0467 109.349 76.7874C109.605 76.5282 109.749 76.1765 109.749 75.8099V68.4367C109.749 68.07 109.605 67.7184 109.349 67.4591C109.092 67.1999 108.744 67.0542 108.381 67.0542H101.084ZM101.084 66.5934H108.381C108.865 66.5934 109.329 66.7876 109.671 67.1333C110.013 67.4789 110.205 67.9478 110.205 68.4367V75.8099C110.205 76.2987 110.013 76.7676 109.671 77.1133C109.329 77.459 108.865 77.6532 108.381 77.6532H101.084C100.601 77.6532 100.137 77.459 99.7944 77.1133C99.4523 76.7676 99.2601 76.2987 99.2601 75.8099V68.4367C99.2601 67.9478 99.4523 67.4789 99.7944 67.1333C100.137 66.7876 100.601 66.5934 101.084 66.5934Z" fill="#4C3F37"/>
<path d="M91.0464 85.0263H157.63V94.2428H91.0464V85.0263Z" fill="#4C3F37"/>
<path d="M142.478 130.523C145.341 130.523 147.661 132.859 147.661 135.74V172.262C147.661 175.143 145.341 177.479 142.478 177.479H106.199C103.337 177.479 101.017 175.143 101.017 172.262V135.74C101.017 132.859 103.337 130.523 106.199 130.523H142.478ZM108.846 148.534V160.523H111.314V156.615H113.452C116.199 156.614 117.778 154.975 117.778 152.574C117.778 150.207 116.232 148.534 113.518 148.534H108.846ZM121.413 148.534L117.285 160.523H119.949L120.854 157.757H125.164L126.052 160.523H128.7L124.588 148.534H121.413ZM128.108 148.534L132.451 156.25V160.523H134.918V156.25L139.261 148.534H136.481L133.75 153.7H133.635L130.888 148.534H128.108ZM123.042 151.233L124.539 155.82H121.479L122.96 151.233H123.042ZM113.057 150.571C114.521 150.571 115.229 151.382 115.229 152.574C115.229 153.783 114.521 154.611 113.057 154.611H111.314V150.571H113.057Z" fill="#4C3F37"/>
</g>
<circle cx="124" cy="124" r="123.5" stroke="#757575"/>
</g>
<defs>
<clipPath id="clip0_6024_94682">
<rect width="248" height="248" fill="white"/>
</clipPath>
</defs>
</svg>
