<svg width="248" height="248" viewBox="0 0 248 248" fill="none" xmlns="http://www.w3.org/2000/svg">
<g clip-path="url(#clip0_6024_94676)">
<circle cx="124" cy="124" r="124" fill="#E6E6E6"/>
<mask id="mask0_6024_94676" style="mask-type:alpha" maskUnits="userSpaceOnUse" x="0" y="0" width="248" height="248">
<circle cx="124" cy="124" r="123.5" fill="#E6E6E6" stroke="black"/>
</mask>
<g mask="url(#mask0_6024_94676)">
<path d="M125.375 204.455C125.013 204.805 124.531 205 124.03 205C123.529 205 123.047 204.805 122.685 204.455L103.82 186.215C103.54 185.944 103.346 185.595 103.265 185.213C103.183 184.83 103.216 184.432 103.361 184.068C103.506 183.705 103.755 183.394 104.076 183.175C104.397 182.956 104.776 182.838 105.164 182.838H142.896C143.284 182.838 143.663 182.956 143.984 183.175C144.305 183.394 144.554 183.705 144.699 184.068C144.844 184.432 144.877 184.83 144.795 185.213C144.714 185.595 144.52 185.944 144.24 186.215L125.375 204.455Z" fill="#E62100"/>
<path d="M199.655 43H48.3447C45.3929 43 43 45.4144 43 48.3926V80.5345C43 83.5127 45.3929 85.9271 48.3447 85.9271H199.655C202.607 85.9271 205 83.5127 205 80.5345V48.3926C205 45.4144 202.607 43 199.655 43Z" fill="#757575"/>
<path d="M199.656 84.1705L199.655 85.9271H48.3447L48.3446 84.1705H199.656ZM203.259 80.5348V48.3924C203.259 46.3848 201.646 44.7568 199.656 44.7567H48.3446C46.354 44.7567 44.7408 46.3848 44.7407 48.3924V80.5348C44.7409 82.5424 46.3541 84.1705 48.3446 84.1705L48.3447 85.9271L48.0698 85.9203C45.3369 85.7806 43.1454 83.5695 43.0068 80.8121L43 80.5345V48.3926C43 45.4144 45.3929 43 48.3447 43H199.655C202.607 43 205 45.4144 205 48.3926V80.5345L204.993 80.8121C204.85 83.6612 202.515 85.927 199.655 85.9271L199.656 84.1705C201.646 84.1704 203.259 82.5423 203.259 80.5348Z" fill="black"/>
<path d="M182.812 56.9282H65.1833C64.3783 56.9282 63.7257 57.5867 63.7257 58.3989V70.3166C63.7257 71.1288 64.3783 71.7873 65.1833 71.7873H182.812C183.617 71.7873 184.27 71.1288 184.27 70.3166V58.3989C184.27 57.5867 183.617 56.9282 182.812 56.9282Z" fill="black"/>
<path d="M170.458 50.595V51.1455C170.458 52.4993 171.546 53.5967 172.888 53.5967H181.84C183.182 53.5967 184.27 52.4993 184.27 51.1455V50.595C184.27 49.2412 183.182 48.1438 181.84 48.1438H172.888C171.546 48.1438 170.458 49.2412 170.458 50.595Z" fill="white"/>
<path d="M183.109 50.5952L184.27 50.595V51.1455L183.109 51.1453V50.5952ZM181.841 49.3149H172.887C172.187 49.315 171.619 49.8885 171.619 50.5952V51.1453C171.619 51.852 172.187 52.4255 172.887 52.4256H181.841C182.542 52.4256 183.109 51.852 183.109 51.1453L184.27 51.1455L184.267 51.2717C184.204 52.5251 183.208 53.5299 181.965 53.5933L181.84 53.5967H172.888C171.588 53.5966 170.527 52.5667 170.462 51.2717L170.458 51.1455V50.595C170.458 49.2412 171.546 48.1438 172.888 48.1438H181.84L181.965 48.1472C183.249 48.2128 184.27 49.2835 184.27 50.595L183.109 50.5952C183.109 49.8885 182.542 49.315 181.841 49.3149Z" fill="black"/>
<path d="M182.176 163.969L171.681 67.6833C171.57 66.7999 171.218 65.965 170.664 65.2719C170.038 64.4855 169.273 63.8243 168.406 63.3226C167.418 62.741 166.354 62.3021 165.245 62.0185C164.02 61.7003 162.76 61.5404 161.496 61.5424H89.1703C87.9055 61.5403 86.6456 61.7003 85.4207 62.0185C84.3119 62.3021 83.2478 62.7411 82.2595 63.3226C81.393 63.8243 80.6274 64.4855 80.0024 65.2719C79.4483 65.965 79.0961 66.7999 78.9852 67.6833L68.4896 163.969C68.3495 165.22 68.5345 166.486 69.0264 167.643C69.536 168.815 70.3038 169.854 71.2714 170.681C72.3365 171.595 73.5633 172.297 74.8869 172.75C76.3742 173.263 77.9363 173.52 79.508 173.511H171.158C172.73 173.52 174.292 173.263 175.779 172.75C177.103 172.297 178.329 171.595 179.395 170.681C180.362 169.854 181.13 168.815 181.64 167.643C182.131 166.486 182.316 165.22 182.176 163.969Z" fill="#F2F2F2"/>
<path d="M170.72 67.6833C170.678 67.3059 170.581 66.9369 170.433 66.5877C170.276 66.2177 170.074 65.8689 169.832 65.5495C169.567 65.2014 169.268 64.8821 168.938 64.5967C168.577 64.283 168.188 64.002 167.778 63.757C167.336 63.4934 166.875 63.264 166.4 63.0707C165.903 62.8686 165.393 62.7003 164.874 62.5672C164.337 62.4292 163.793 62.3253 163.244 62.2562C162.683 62.1854 162.119 62.1496 161.554 62.1491H89.1225C88.5576 62.1496 87.9933 62.1854 87.4328 62.2562C86.8836 62.3254 86.3392 62.4292 85.8029 62.5672C85.2836 62.7003 84.7737 62.8686 84.2768 63.0707C83.8009 63.264 83.3402 63.4934 82.8987 63.757C82.4882 64.002 82.0998 64.283 81.7382 64.5967C81.4083 64.8821 81.1089 65.2014 80.8446 65.5495C80.602 65.8689 80.3999 66.2177 80.2429 66.5877C80.0951 66.9369 79.9986 67.3059 79.9563 67.6833L69.6783 163.969C69.5604 165.074 69.7231 166.191 70.1512 167.215C70.3699 167.738 70.6498 168.233 70.985 168.689C71.3392 169.17 71.7454 169.609 72.196 169.999C72.6707 170.41 73.1853 170.772 73.7319 171.079C74.3013 171.399 74.8983 171.666 75.5156 171.877C76.1584 172.097 76.8183 172.263 77.4885 172.372C78.1851 172.485 78.8897 172.542 79.5953 172.542H171.078C171.784 172.542 172.488 172.485 173.185 172.372C173.855 172.263 174.515 172.097 175.158 171.877C175.775 171.666 176.372 171.399 176.942 171.079C177.488 170.772 178.003 170.41 178.478 169.999C178.929 169.609 179.335 169.17 179.689 168.689C180.024 168.233 180.304 167.738 180.523 167.215C180.951 166.191 181.114 165.074 180.996 163.969L170.72 67.6833ZM171.686 67.6833L182.181 163.969C182.317 165.197 182.14 166.44 181.667 167.58C181.425 168.162 181.116 168.713 180.744 169.22C180.351 169.756 179.9 170.246 179.399 170.68C178.872 171.138 178.3 171.542 177.692 171.884C177.058 172.24 176.394 172.538 175.707 172.772C174.991 173.018 174.256 173.202 173.509 173.323C172.733 173.449 171.949 173.512 171.163 173.511H79.513C79.1172 173.511 78.7242 173.496 78.3339 173.465C77.9436 173.433 77.5581 173.387 77.1774 173.325C76.7968 173.263 76.422 173.185 76.0529 173.093C75.6839 173.001 75.3224 172.894 74.9684 172.772C74.6149 172.651 74.2716 172.515 73.9385 172.366C73.6054 172.217 73.2844 172.055 72.9753 171.879C72.6658 171.704 72.3693 171.516 72.0858 171.316C71.8055 171.118 71.5355 170.906 71.2769 170.68C71.0249 170.46 70.7849 170.227 70.558 169.981C70.337 169.742 70.1297 169.491 69.9371 169.228C69.749 168.971 69.5762 168.703 69.4195 168.425C69.2656 168.152 69.1284 167.87 69.0087 167.58C68.8905 167.294 68.7903 167 68.7087 166.701C68.5469 166.11 68.4603 165.5 68.4511 164.886C68.4463 164.578 68.4607 164.271 68.494 163.965L78.9896 67.6833C79.0122 67.4771 79.05 67.273 79.1027 67.0725C79.1567 66.8675 79.225 66.6665 79.307 66.4711C79.391 66.2698 79.4879 66.0742 79.5971 65.8856C79.7121 65.6877 79.8388 65.4971 79.9766 65.3146C80.1213 65.1241 80.2762 64.9417 80.4408 64.7683C80.6075 64.5911 80.7866 64.4191 80.9781 64.2524C81.1696 64.0857 81.3727 63.9251 81.5873 63.7705C81.802 63.6143 82.0278 63.466 82.2645 63.3255C82.5012 63.1849 82.7467 63.0508 83.0008 62.9232C83.255 62.7967 83.5173 62.6782 83.7877 62.5677C84.058 62.4573 84.3352 62.3552 84.6192 62.2615C84.9031 62.1678 85.1932 62.0829 85.4895 62.0068C85.7858 61.9307 86.0858 61.8627 86.3895 61.803C86.6928 61.7464 86.9989 61.6986 87.308 61.6595C87.6171 61.6205 87.9273 61.5912 88.2387 61.5717C88.5501 61.5522 88.8621 61.5424 89.1747 61.5424H161.5C162.127 61.5424 162.754 61.5815 163.376 61.6595C163.986 61.7358 164.59 61.8506 165.186 62.0033C165.762 62.1508 166.329 62.3372 166.881 62.5613C167.409 62.7756 167.921 63.0301 168.411 63.3225C168.868 63.5942 169.3 63.9059 169.703 64.2542C170.07 64.5711 170.403 64.9257 170.696 65.3123C170.966 65.6672 171.192 66.0547 171.366 66.4659C171.531 66.8539 171.639 67.264 171.686 67.6833Z" fill="#4C3F37"/>
<path d="M159.571 85.8868L158.754 75.3045C158.721 74.9403 158.587 74.5929 158.369 74.3014C158.123 73.9735 157.817 73.6965 157.468 73.4857C157.068 73.2415 156.635 73.0571 156.183 72.9382C155.683 72.8039 155.166 72.7364 154.648 72.7373H139.015C138.503 72.7355 137.993 72.803 137.499 72.9382C137.064 73.0552 136.649 73.2402 136.27 73.4863C135.943 73.696 135.663 73.9739 135.451 74.3014C135.259 74.5998 135.16 74.9489 135.165 75.3045L135.405 85.8868C135.417 86.2647 135.535 86.6313 135.745 86.9443C135.98 87.2912 136.281 87.5863 136.632 87.8116C137.034 88.0728 137.473 88.2703 137.935 88.3971C138.45 88.5416 138.983 88.6141 139.518 88.6126H155.73C156.258 88.6151 156.784 88.5426 157.292 88.3971C157.735 88.2725 158.156 88.0747 158.535 87.8116C158.863 87.5868 159.137 87.2904 159.336 86.9443C159.517 86.6233 159.599 86.2551 159.571 85.8868Z" fill="white"/>
<path d="M157.772 75.3044C157.762 75.1744 157.733 75.0466 157.686 74.925C157.637 74.797 157.572 74.6758 157.492 74.5643C157.406 74.4433 157.307 74.332 157.197 74.2323C157.077 74.123 156.947 74.025 156.809 73.9395C156.66 73.8473 156.505 73.7671 156.344 73.6994C156.176 73.6288 156.003 73.5701 155.826 73.5237C155.643 73.4753 155.458 73.4389 155.27 73.4148C155.078 73.3898 154.884 73.3773 154.69 73.3773H139.035C138.844 73.3773 138.652 73.3899 138.462 73.4148C138.278 73.4387 138.096 73.4751 137.917 73.5237C137.746 73.5697 137.578 73.6285 137.416 73.6994C137.262 73.7666 137.115 73.8469 136.975 73.9395C136.846 74.0247 136.726 74.1228 136.616 74.2323C136.516 74.3321 136.428 74.4436 136.354 74.5643C136.285 74.6766 136.232 74.798 136.196 74.925C136.162 75.0483 136.146 75.1763 136.149 75.3044L136.413 85.8868C136.417 86.0224 136.44 86.1567 136.482 86.2856C136.526 86.4198 136.586 86.5477 136.663 86.6662C136.746 86.7939 136.844 86.9117 136.953 87.0175C137.072 87.1336 137.201 87.2379 137.339 87.329C137.488 87.427 137.645 87.5124 137.808 87.5843C137.979 87.6601 138.156 87.7231 138.336 87.7729C138.523 87.8249 138.713 87.864 138.905 87.89C139.103 87.9166 139.302 87.9299 139.501 87.9298H155.683C155.881 87.9299 156.079 87.9166 156.275 87.89C156.464 87.8643 156.65 87.8251 156.833 87.7729C157.008 87.7235 157.178 87.6605 157.342 87.5843C157.497 87.5129 157.646 87.4274 157.786 87.329C157.915 87.2381 158.034 87.1337 158.141 87.0175C158.239 86.9113 158.324 86.7933 158.393 86.6662C158.458 86.5467 158.507 86.4185 158.537 86.2856C158.566 86.1548 158.575 86.0204 158.566 85.8868L157.772 75.3044ZM158.754 75.3045L159.571 85.8868C159.585 86.0649 159.573 86.2441 159.535 86.4185C159.495 86.5958 159.431 86.7667 159.345 86.9262C159.253 87.0956 159.14 87.253 159.009 87.3946C158.867 87.5497 158.708 87.6891 158.536 87.8104C158.349 87.942 158.152 88.0562 157.945 88.1518C157.725 88.2534 157.498 88.3376 157.266 88.4035C157.021 88.4731 156.772 88.5252 156.521 88.5593C156.259 88.5949 155.994 88.6128 155.73 88.6126H139.518C139.252 88.6127 138.985 88.5948 138.721 88.5593C138.464 88.5248 138.21 88.4728 137.96 88.4035C137.72 88.3371 137.485 88.2529 137.256 88.1518C137.039 88.0556 136.83 87.9414 136.631 87.8104C136.447 87.6888 136.274 87.5496 136.116 87.3946C135.972 87.2534 135.844 87.0962 135.734 86.9262C135.632 86.7682 135.551 86.5975 135.493 86.4185C135.438 86.2466 135.407 86.0675 135.403 85.8868L135.165 75.3045C135.161 75.1337 135.183 74.9633 135.23 74.7991C135.278 74.6298 135.35 74.4681 135.441 74.3183C135.54 74.1577 135.657 74.0093 135.79 73.8762C135.936 73.7302 136.097 73.5993 136.269 73.4857C136.456 73.3625 136.653 73.2558 136.858 73.1665C137.075 73.072 137.297 72.9937 137.525 72.9323C137.763 72.8673 138.006 72.8186 138.25 72.7865C138.504 72.7535 138.759 72.7371 139.015 72.7373H154.648C154.905 72.7373 155.161 72.7537 155.416 72.7865C155.665 72.8185 155.912 72.8668 156.156 72.9311C156.391 72.993 156.621 73.0713 156.846 73.1654C157.06 73.2554 157.267 73.3623 157.465 73.4851C157.649 73.5991 157.823 73.7299 157.984 73.8757C158.13 74.0084 158.262 74.1566 158.378 74.3178C158.484 74.4661 158.571 74.6275 158.637 74.7979C158.7 74.9601 158.74 75.1307 158.754 75.3045Z" fill="#4C3F37"/>
<path d="M119.625 61.5424L118.1 173.513H93.9812L100.593 61.5424H119.625Z" fill="#4C3F37"/>
</g>
<circle cx="124" cy="124" r="123.5" stroke="#757575"/>
</g>
<defs>
<clipPath id="clip0_6024_94676">
<rect width="248" height="248" fill="white"/>
</clipPath>
</defs>
</svg>
