<svg width="248" height="248" viewBox="0 0 248 248" fill="none" xmlns="http://www.w3.org/2000/svg">
<g clip-path="url(#clip0_6024_94688)">
<circle cx="124" cy="124" r="124" fill="#E6E6E6"/>
<mask id="mask0_6024_94688" style="mask-type:alpha" maskUnits="userSpaceOnUse" x="0" y="0" width="248" height="248">
<circle cx="124" cy="124" r="123.5" fill="#E6E6E6" stroke="black"/>
</mask>
<g mask="url(#mask0_6024_94688)">
<path d="M51 9C51 5.68629 53.6863 3 57 3H191C194.314 3 197 5.68629 197 9V107C197 110.314 194.314 113 191 113H57C53.6863 113 51 110.314 51 107V9Z" fill="#757575"/>
<path d="M54 9C54 7.34314 55.3431 6 57 6H191C192.657 6 194 7.34315 194 9V107C194 108.657 192.657 110 191 110H57C55.3431 110 54 108.657 54 107V9Z" fill="black"/>
<path d="M57 9H191V107H57V9Z" fill="url(#paint0_radial_6024_94688)"/>
<path d="M189.118 8.78711C189.788 8.3 190.726 8.44824 191.213 9.11816C191.7 9.78813 191.552 10.7257 190.882 11.2129L126.549 58L190.882 104.787C191.552 105.274 191.7 106.212 191.213 106.882C190.726 107.552 189.788 107.7 189.118 107.213L124 59.8535L58.8818 107.213C58.2119 107.7 57.2743 107.552 56.7871 106.882C56.3 106.212 56.4482 105.274 57.1182 104.787L121.45 58L57.1182 11.2129C56.4482 10.7257 56.3 9.78813 56.7871 9.11816C57.2743 8.44824 58.2119 8.3 58.8818 8.78711L124 56.1455L189.118 8.78711Z" fill="#757575"/>
<path d="M142 58C142 48.0589 133.941 40 124 40C114.059 40 106 48.0589 106 58C106 67.9411 114.059 76 124 76C133.941 76 142 67.9411 142 58Z" fill="url(#paint1_radial_6024_94688)"/>
<path d="M85.789 65H162.211C165.072 65 167.817 66.1379 169.84 68.1632C171.863 70.1886 173 72.9357 173 75.8V234.2C173 237.064 171.863 239.811 169.84 241.837C167.817 243.862 165.072 245 162.211 245H85.789C82.9276 245 80.1834 243.862 78.16 241.837C76.1367 239.811 75 237.064 75 234.2V75.8C75 72.9357 76.1367 70.1886 78.16 68.1632C80.1834 66.1379 82.9276 65 85.789 65Z" fill="#FAFAFA"/>
<path d="M172.55 228.801H75.4492V227.901H172.55V228.801Z" fill="#4C3F37"/>
<path d="M85.789 65.9C83.166 65.9 80.6505 66.943 78.7958 68.7996C76.9411 70.6563 75.8991 73.1744 75.8991 75.8V234.2C75.8991 236.826 76.9411 239.344 78.7958 241.2C80.6505 243.057 83.166 244.1 85.789 244.1H162.211C164.834 244.1 167.35 243.057 169.204 241.2C171.059 239.344 172.101 236.826 172.101 234.2V75.8C172.101 73.1744 171.059 70.6563 169.204 68.7996C167.35 66.943 164.834 65.9 162.211 65.9H85.789ZM85.789 65H162.211C165.072 65 167.817 66.1379 169.84 68.1632C171.863 70.1886 173 72.9357 173 75.8V234.2C173 237.064 171.863 239.811 169.84 241.837C167.817 243.862 165.072 245 162.211 245H85.789C82.9276 245 80.1834 243.862 78.16 241.837C76.1367 239.811 75 237.064 75 234.2V75.8C75 72.9357 76.1367 70.1886 78.16 68.1632C80.1834 66.1379 82.9276 65 85.789 65Z" fill="#4C3F37"/>
<path d="M118.814 125V127.069H122.96V125H118.814Z" fill="#4C3F37"/>
<path d="M129.177 125H127.103V127.069H129.177V125Z" fill="#4C3F37"/>
<path d="M141.621 127.069H151.983V137.413H141.621V127.069ZM139.547 125V139.483H154.057V125H139.547Z" fill="#4C3F37"/>
<path d="M112.597 127.068H110.525V129.137H112.597V127.068Z" fill="#4C3F37"/>
<path d="M114.67 125V129.137H116.743V125H114.67Z" fill="#4C3F37"/>
<path d="M143.692 129.137V135.344H149.91V129.137H143.692Z" fill="#4C3F37"/>
<path d="M104.309 135.344V129.137H98.0913V135.344H104.309Z" fill="#4C3F37"/>
<path d="M114.671 137.412V133.274H116.743V131.206H110.525V133.274H112.597V135.343H110.525V139.481H112.597V137.412H114.671Z" fill="#4C3F37"/>
<path d="M96.0191 127.069H106.383V137.413H96.0191V127.069ZM93.9467 125V139.483H108.455V125H93.9467Z" fill="#4C3F37"/>
<path d="M118.824 139.481H120.897V137.411H122.969V135.343H116.752V137.411H118.824V139.481Z" fill="#4C3F37"/>
<path d="M118.816 139.48H116.743V137.411L114.671 137.412L114.671 139.48H112.598V141.549H106.38V143.617H108.453V145.686H106.38V147.754H112.598V143.618H114.671V141.549H116.743V143.618H118.816L118.816 139.48Z" fill="#4C3F37"/>
<path d="M147.837 141.559H145.764V143.627H147.837V141.559Z" fill="#4C3F37"/>
<path d="M151.981 141.559H149.909V143.627H151.981V141.559Z" fill="#4C3F37"/>
<path d="M93.9467 141.559V145.697H96.0191V143.627H102.237V145.696H106.383V143.627H104.31V141.559H93.9467Z" fill="#4C3F37"/>
<path d="M114.67 147.754H116.742V143.617H114.67V147.754Z" fill="#4C3F37"/>
<path d="M120.887 143.617H118.814V145.686H120.887V143.617Z" fill="#4C3F37"/>
<path d="M127.105 139.483H125.032V137.413H127.105V139.483ZM131.25 125V127.069H129.177L129.177 129.138H133.323V127.069H135.395V129.138H133.323V133.276H131.25V131.206H127.105L127.103 127.069H125.032V129.138H122.96V131.206H120.887V129.138H118.814V133.276H127.105V135.344H125.032V137.413H122.96V141.551H120.887V143.62H122.959V147.757H131.249V145.689H135.395V147.757H139.54V145.689H137.467V143.619H139.54V141.55H137.467V137.413H135.395V143.62H133.323V141.55H129.177V143.619H127.105V145.688H125.032V143.619H127.105V141.55H129.177V137.413H131.249V139.483H133.322V135.344H137.467V133.276H135.395V131.206H137.467V125H131.25Z" fill="#4C3F37"/>
<path d="M145.765 145.697L145.764 143.627H143.693V141.559H141.62V143.627H139.547V145.696L145.765 145.697Z" fill="#4C3F37"/>
<path d="M154.054 143.617H151.981V145.687H154.054V143.617Z" fill="#4C3F37"/>
<path d="M96.019 145.686V147.754H102.237V145.686H96.019Z" fill="#4C3F37"/>
<path d="M135.394 149.833V147.765H131.248V149.833H135.394Z" fill="#4C3F37"/>
<path d="M143.692 149.833V147.765H139.547V149.833H143.692Z" fill="#4C3F37"/>
<path d="M151.981 147.765H149.909V149.833H151.981V147.765Z" fill="#4C3F37"/>
<path d="M96.0191 149.833H93.9467V151.903H96.0191V149.833Z" fill="#4C3F37"/>
<path d="M100.165 149.833H98.0914V151.902L96.0191 151.903L96.019 156.04H98.0914V153.971H100.165V149.833Z" fill="#4C3F37"/>
<path d="M108.454 149.833H102.236V151.902H108.454V149.833Z" fill="#4C3F37"/>
<path d="M116.743 151.902V149.833H110.525V153.971H112.597V151.902H116.743Z" fill="#4C3F37"/>
<path d="M131.258 149.833H129.186V151.902H131.258V149.833Z" fill="#4C3F37"/>
<path d="M149.91 151.903L149.909 149.833H147.837V147.765H145.764V151.903H149.91Z" fill="#4C3F37"/>
<path d="M145.764 151.892H143.692V153.96H145.764V151.892Z" fill="#4C3F37"/>
<path d="M154.054 151.892H151.981V153.96H154.054V151.892Z" fill="#4C3F37"/>
<path d="M108.453 153.97H106.38V156.039H108.453V153.97Z" fill="#4C3F37"/>
<path d="M149.909 156.039V153.97H145.764V156.039H149.909Z" fill="#4C3F37"/>
<path d="M100.165 153.971L100.165 158.109H93.9467V168.452H96.0191V160.177H102.237V158.109H104.309V156.039H102.237V153.97L100.165 153.971Z" fill="#4C3F37"/>
<path d="M112.597 156.029H110.525V158.098H112.597V156.029Z" fill="#4C3F37"/>
<path d="M135.403 156.029H133.33V158.097H135.403V156.029Z" fill="#4C3F37"/>
<path d="M151.981 156.029H149.909V158.097H151.981V156.029Z" fill="#4C3F37"/>
<path d="M108.453 160.166V158.098H104.308V160.166H108.453Z" fill="#4C3F37"/>
<path d="M118.815 160.177V156.039H120.888V153.97L112.597 153.971L112.597 156.039H116.743V158.108H114.67V160.176L118.815 160.177Z" fill="#4C3F37"/>
<path d="M145.764 158.098V160.166H147.837V164.304H149.909L149.909 158.097L145.764 158.098Z" fill="#4C3F37"/>
<path d="M104.308 160.166L102.236 160.166V162.235H104.308L104.308 160.166Z" fill="#4C3F37"/>
<path d="M120.887 160.166H118.814V162.235H120.887V160.166Z" fill="#4C3F37"/>
<path d="M154.054 160.166H151.981V162.235H154.054V160.166Z" fill="#4C3F37"/>
<path d="M102.236 162.235L100.164 162.235V164.303H102.236L102.236 162.235Z" fill="#4C3F37"/>
<path d="M108.454 164.303V162.235L104.308 162.235V164.303H102.236L102.236 166.372H106.381V164.303H108.454Z" fill="#4C3F37"/>
<path d="M122.969 162.235H120.897V164.303H122.969V162.235Z" fill="#4C3F37"/>
<path d="M116.743 162.235H114.671V160.166H112.597V162.235H110.525V164.303H114.671V166.372H116.743V162.235Z" fill="#4C3F37"/>
<path d="M125.032 166.373H120.887V164.303H118.814V168.441H127.105V170.51H122.96V174.648H125.032V172.579H127.105V174.647H129.177V170.51H133.323V168.441H131.25V166.373H127.105V162.235H125.032V166.373Z" fill="#4C3F37"/>
<path d="M143.685 180.866H145.758V182.935H143.685V180.866ZM137.467 168.453H143.685V174.66H137.467V168.453ZM139.54 158.109V156.04H141.613V160.178H139.54V162.247H141.613V166.385H137.467V158.109H139.54ZM118.814 147.765V151.903H122.96V158.109H120.887V160.178H122.959V162.247H125.031V158.109H127.104V156.04H133.322V153.971H137.467V158.109L135.395 158.109V160.178H131.25V158.109H129.177V160.177H127.105V162.246H129.177V164.314H131.249V162.247H135.395V170.522H133.323V174.66H135.395V176.727H141.613V178.795H139.54V180.864H141.613V185.002H149.903V182.935H147.829V180.866H149.901V182.934H151.974V178.797H154.046V172.591H149.903V174.659H147.829V176.727H145.758V178.795H143.685V176.727H145.758L145.758 172.591H149.903V170.522H154.049V166.384H151.976V164.315H149.903V166.384H147.829V168.452H145.758V164.315H143.685V162.247H145.758V160.178H143.685V158.109H145.758V156.04H143.685V153.971H141.613V151.903H137.467V149.833H135.394L135.395 151.902H131.25V153.97H129.177V151.903H127.105V153.971H125.032V149.833H120.887V147.765H118.814Z" fill="#4C3F37"/>
<path d="M98.0913 166.382V168.451H102.237V166.382H98.0913Z" fill="#4C3F37"/>
<path d="M106.38 166.382V168.451H110.526V166.382H106.38Z" fill="#4C3F37"/>
<path d="M114.67 166.382H112.597V168.451H114.67V166.382Z" fill="#4C3F37"/>
<path d="M116.742 168.441H114.67V170.509H116.742V168.441Z" fill="#4C3F37"/>
<path d="M96.0191 172.578H106.383V182.923H96.0191V172.578ZM93.9467 170.509V184.991H108.455V170.509H93.9467Z" fill="#4C3F37"/>
<path d="M141.62 170.509H139.547V172.578H141.62V170.509Z" fill="#4C3F37"/>
<path d="M118.815 172.579H120.888V170.509H116.742L116.743 172.578H114.671L114.67 170.509H112.597V168.441H110.525V172.579H112.597V174.647H114.67V176.716H118.815V172.579Z" fill="#4C3F37"/>
<path d="M98.0913 174.646V180.853H104.309V174.646H98.0913Z" fill="#4C3F37"/>
<path d="M110.525 174.646V184.99H116.743V182.923H114.67V180.853H116.743V178.784H114.67V176.716L112.598 176.716L112.597 174.647L110.525 174.646Z" fill="#4C3F37"/>
<path d="M129.177 174.647V178.785H122.96V176.716L118.815 176.716L118.814 178.785H120.887V180.853H118.814V184.991H120.887V182.923H122.959V180.853H127.105V182.923H129.177V180.853H131.249V178.784H133.322V174.646L129.177 174.647Z" fill="#4C3F37"/>
<path d="M133.33 178.794V185.001H135.404V182.932H137.476V180.862H135.404V178.794H133.33Z" fill="#4C3F37"/>
<path d="M122.959 182.921V184.989H127.104V182.921H122.959Z" fill="#4C3F37"/>
<path d="M131.258 182.921H129.186V184.989H131.258V182.921Z" fill="#4C3F37"/>
<path d="M139.547 182.921H137.475V184.989H139.547V182.921Z" fill="#4C3F37"/>
<path d="M121.567 58L51 121H197L126.433 58H121.567Z" fill="url(#paint2_linear_6024_94688)"/>
</g>
<circle cx="124" cy="124" r="123.5" stroke="#757575"/>
</g>
<defs>
<radialGradient id="paint0_radial_6024_94688" cx="0" cy="0" r="1" gradientUnits="userSpaceOnUse" gradientTransform="translate(124 58) rotate(90) scale(49 67)">
<stop stop-color="#F2F2F2"/>
<stop offset="1" stop-color="#757575"/>
</radialGradient>
<radialGradient id="paint1_radial_6024_94688" cx="0" cy="0" r="1" gradientUnits="userSpaceOnUse" gradientTransform="translate(124 58) scale(18 18)">
<stop stop-color="#757575"/>
<stop offset="1" stop-color="#3B3B3B"/>
</radialGradient>
<linearGradient id="paint2_linear_6024_94688" x1="119.62" y1="121" x2="119.593" y2="57.9999" gradientUnits="userSpaceOnUse">
<stop stop-color="#FF0000" stop-opacity="0"/>
<stop offset="0.65" stop-color="#E62100" stop-opacity="0.6"/>
<stop offset="1" stop-color="#FF0000" stop-opacity="0.839"/>
</linearGradient>
<clipPath id="clip0_6024_94688">
<rect width="248" height="248" fill="white"/>
</clipPath>
</defs>
</svg>
