<svg width="97" height="97" viewBox="0 0 97 97" fill="none" xmlns="http://www.w3.org/2000/svg">
<path fill-rule="evenodd" clip-rule="evenodd" d="M50.6814 42.4062C51.4958 42.4056 52.3065 42.5163 53.0877 42.7344C54.6304 43.1739 56.0171 44.0088 57.0916 45.1445C58.2283 46.3501 59.0872 47.7671 59.6111 49.3047C60.8066 52.9533 60.7953 56.8611 59.5798 60.5039C58.5265 64.1022 56.3738 67.3264 53.3923 69.7734C51.4486 71.3973 48.9649 72.3289 46.3728 72.4062C45.1517 72.4076 43.9439 72.1643 42.8298 71.6914C41.7152 71.2181 40.7187 70.5247 39.908 69.6602C38.7709 68.4546 37.9126 67.0376 37.3884 65.5C36.1928 61.8514 36.2043 57.9436 37.4197 54.3008C38.3963 51.0593 40.2457 48.1128 42.7869 45.75C44.8741 43.7275 47.6963 42.5315 50.6814 42.4062ZM54.0994 47.7227C53.5122 51.1247 52.1857 54.3761 50.2048 57.2695L50.197 57.2773C48.9941 59.0031 48.0783 60.8942 47.4822 62.8828C46.9995 64.4871 46.7267 66.1415 46.6697 67.8086C46.6581 68.1581 46.6538 68.4756 46.658 68.7695C48.2538 68.617 49.7576 67.99 50.9548 66.9805C53.3363 65.0032 55.0543 62.4101 55.8923 59.5195L55.9041 59.4805C57.4145 54.6552 56.6627 49.7938 54.1541 47.4453C54.1384 47.5371 54.1202 47.6289 54.0994 47.7227ZM49.5369 46.1523C47.8463 46.5011 46.3085 47.3459 45.1462 48.5742C43.2903 50.4794 41.9122 52.7586 41.1189 55.2383C40.3262 57.7169 40.1368 60.3328 40.5642 62.8906C40.8318 64.4785 41.56 65.9662 42.6658 67.1875C42.6836 66.8633 42.7075 66.5409 42.74 66.2227C42.8867 64.7559 43.1734 63.3038 43.5994 61.8867C44.3002 59.5457 45.3799 57.321 46.7947 55.2891C48.5109 52.7739 49.6507 49.9449 50.1462 46.9883C50.2024 46.7253 50.2411 46.4592 50.2595 46.1914C50.2669 46.1408 50.2681 46.0819 50.2712 46.0312L49.5369 46.1523Z" fill="white"/>
<path fill-rule="evenodd" clip-rule="evenodd" d="M66.0447 8.40625C67.1257 8.46625 68.1511 8.90315 68.9392 9.64062C69.7278 10.379 70.2295 11.372 70.3533 12.4414L71.3377 19.5391H73.1423C76.0949 19.54 78.4973 22.3682 78.4978 25.8438V29.3828C78.5276 30.3577 78.1652 31.3038 77.4939 32.0156C76.8228 32.7271 75.8967 33.1454 74.9158 33.1797H74.2361L67.8181 83.0547C67.6846 84.478 67.0334 85.8044 65.99 86.7891C64.9465 87.7735 63.5802 88.3508 62.1423 88.4102H34.6697C33.2131 88.3525 31.8276 87.7638 30.7791 86.7578C29.7306 85.7517 29.0906 84.3972 28.9822 82.9531L23.3337 33.1797H22.0837C21.1024 33.1456 20.173 32.7275 19.5017 32.0156C18.8309 31.3039 18.472 30.3573 18.5017 29.3828V25.8438C18.5023 22.3676 20.904 19.5391 23.8572 19.5391H24.9705L25.8845 12.6484C25.962 11.5368 26.448 10.4924 27.2478 9.71094C28.0479 8.92931 29.1076 8.46452 30.2283 8.40625H66.0447ZM32.4978 82.5586C32.513 83.1439 32.7423 83.7027 33.1423 84.1328C33.5421 84.5625 34.084 84.833 34.6697 84.8945H62.1423C62.7181 84.833 63.253 84.5709 63.6502 84.1523C64.0479 83.7324 64.2839 83.1814 64.3103 82.6055L70.6736 33.1836H26.8923L32.4978 82.5586ZM23.8572 23.0508C22.9958 23.0508 22.033 24.2008 22.033 25.8477V29.3828C22.0284 29.4378 22.0377 29.4949 22.0564 29.5469C22.075 29.598 22.1044 29.6444 22.1423 29.6836L22.9353 29.6797V29.6719H74.865C74.9302 29.5908 74.9639 29.4864 74.9588 29.3828V25.8438C74.9583 24.1996 74.0002 23.0522 73.1384 23.0508H23.8572ZM30.2283 11.7695C29.8386 11.7695 29.3522 12.2725 29.2439 13.0898L28.3845 19.5391H67.9197L67.0056 12.9531C66.8822 12.2318 66.418 11.7703 66.0447 11.7695H30.2283Z" fill="white"/>
</svg>
