<?xml version="1.0" encoding="UTF-8"?>
<svg viewBox="0 0 24 24" xmlns="http://www.w3.org/2000/svg">
<path fill-rule="evenodd" clip-rule="evenodd" d="M12.5455 10.5C12.7491 10.4998 12.9518 10.5275 13.147 10.582C13.5327 10.6919 13.8794 10.9006 14.148 11.1846C14.4322 11.486 14.6469 11.8402 14.7779 12.2246C15.0768 13.1368 15.0739 14.1137 14.7701 15.0244C14.5067 15.924 13.9686 16.73 13.2232 17.3418C12.7373 17.7478 12.1163 17.9807 11.4683 18C11.163 18.0003 10.8611 17.9395 10.5826 17.8213C10.3039 17.703 10.0548 17.5296 9.85211 17.3135C9.56784 17.0121 9.35327 16.6578 9.22223 16.2734C8.92332 15.3613 8.92618 14.3843 9.23004 13.4736C9.4742 12.6633 9.93654 11.9266 10.5718 11.3359C11.0936 10.8303 11.7992 10.5313 12.5455 10.5ZM13.4 11.8291C13.2532 12.6796 12.9216 13.4925 12.4263 14.2158L12.4244 14.2178C12.1237 14.6492 11.8947 15.122 11.7457 15.6191C11.625 16.0202 11.5568 16.4338 11.5425 16.8506C11.5397 16.938 11.5386 17.0173 11.5396 17.0908C11.9386 17.0527 12.3145 16.8959 12.6138 16.6436C13.2092 16.1492 13.6387 15.501 13.8482 14.7783L13.8511 14.7686C14.2287 13.5622 14.0408 12.3469 13.4136 11.7598C13.4097 11.7827 13.4052 11.8057 13.4 11.8291ZM12.2593 11.4365C11.8367 11.5237 11.4522 11.7349 11.1617 12.042C10.6977 12.5183 10.3532 13.0881 10.1548 13.708C9.95668 14.3277 9.90931 14.9816 10.0162 15.6211C10.0831 16.0181 10.2651 16.39 10.5416 16.6953C10.546 16.6143 10.552 16.5337 10.5601 16.4541C10.5968 16.0874 10.6685 15.7244 10.775 15.3701C10.9502 14.7849 11.2201 14.2287 11.5738 13.7207C12.0028 13.0919 12.2878 12.3847 12.4117 11.6455C12.4257 11.5798 12.4354 11.5132 12.44 11.4463C12.4418 11.4336 12.4421 11.4189 12.4429 11.4062L12.2593 11.4365Z"/>
<path fill-rule="evenodd" clip-rule="evenodd" d="M16.3863 2C16.6565 2.015 16.9129 2.12423 17.1099 2.30859C17.3071 2.4932 17.4325 2.74143 17.4634 3.00879L17.7095 4.7832H18.1607C18.8988 4.78344 19.4994 5.49049 19.4996 6.35938V7.24414C19.507 7.48787 19.4164 7.72438 19.2486 7.90234C19.0808 8.08021 18.8493 8.1848 18.6041 8.19336H18.4341L16.8297 20.6621C16.7963 21.0179 16.6335 21.3495 16.3726 21.5957C16.1117 21.8418 15.7702 21.9861 15.4107 22.001H8.54254C8.17839 21.9866 7.83203 21.8394 7.56989 21.5879C7.30777 21.3364 7.14778 20.9977 7.12067 20.6367L5.70856 8.19336H5.39606C5.15073 8.18483 4.91837 8.0803 4.75055 7.90234C4.58286 7.72441 4.49311 7.48777 4.50055 7.24414V6.35938C4.50069 5.49034 5.10112 4.7832 5.83942 4.7832H6.11774L6.34625 3.06055C6.36562 2.78263 6.48713 2.52154 6.68707 2.32617C6.8871 2.13077 7.15202 2.01457 7.43219 2H16.3863ZM7.99957 20.5381C8.00337 20.6844 8.0607 20.8241 8.16071 20.9316C8.26064 21.0391 8.39612 21.1067 8.54254 21.1221H15.4107C15.5546 21.1067 15.6884 21.0412 15.7877 20.9365C15.8871 20.8315 15.9461 20.6938 15.9527 20.5498L17.5435 8.19434H6.59821L7.99957 20.5381ZM5.83942 5.66113C5.62408 5.66113 5.38336 5.94864 5.38336 6.36035V7.24414C5.38221 7.2579 5.38455 7.27215 5.38922 7.28516C5.39388 7.29794 5.40122 7.30954 5.41071 7.31934L5.60895 7.31836V7.31641H18.5914C18.6077 7.29615 18.6161 7.27004 18.6148 7.24414V6.35938C18.6147 5.94833 18.3752 5.66149 18.1597 5.66113H5.83942ZM7.43219 2.84082C7.33477 2.84082 7.21317 2.96655 7.1861 3.1709L6.97125 4.7832H16.855L16.6265 3.13672C16.5957 2.9564 16.4796 2.84101 16.3863 2.84082H7.43219Z"/>
</svg>