<svg width="24" height="24" viewBox="0 0 24 24" fill="none" xmlns="http://www.w3.org/2000/svg">
<path d="M19.1921 6.5H4.80854C4.17808 6.5 3.66699 7.01301 3.66699 7.64583V16.3542C3.66699 16.987 4.17808 17.5 4.80854 17.5H19.1921C19.8226 17.5 20.3337 16.987 20.3337 16.3542V7.64583C20.3337 7.01301 19.8226 6.5 19.1921 6.5Z" fill="#F2F2F2"/>
<path d="M4.80854 6.61458C4.53615 6.61489 4.27501 6.72363 4.0824 6.91696C3.88979 7.1103 3.78145 7.37242 3.78115 7.64583V16.3542C3.78145 16.6276 3.88979 16.8897 4.0824 17.083C4.27501 17.2764 4.53615 17.3851 4.80854 17.3854H19.1921C19.4645 17.3851 19.7256 17.2764 19.9183 17.083C20.1109 16.8897 20.2192 16.6276 20.2195 16.3542V7.64583C20.2192 7.37242 20.1109 7.1103 19.9183 6.91696C19.7256 6.72363 19.4645 6.61489 19.1921 6.61458H4.80854ZM4.80854 6.5H19.1921C19.4949 6.5 19.7852 6.62072 19.9993 6.83561C20.2134 7.05049 20.3337 7.34194 20.3337 7.64583V16.3542C20.3337 16.5046 20.3041 16.6536 20.2468 16.7927C20.1894 16.9317 20.1053 17.058 19.9993 17.1644C19.8933 17.2708 19.7675 17.3552 19.629 17.4128C19.4905 17.4704 19.342 17.5 19.1921 17.5H4.80854C4.65863 17.5 4.51019 17.4704 4.37169 17.4128C4.23319 17.3552 4.10735 17.2708 4.00135 17.1644C3.89534 17.058 3.81126 16.9317 3.75389 16.7927C3.69652 16.6536 3.66699 16.5046 3.66699 16.3542V7.64583C3.66699 7.34194 3.78726 7.05049 4.00135 6.83561C4.21543 6.62072 4.50579 6.5 4.80854 6.5Z" fill="#4C3F37"/>
<path d="M8.00605 8.10437H6.17957C5.92738 8.10437 5.72295 8.30957 5.72295 8.5627V10.396C5.72295 10.6492 5.92738 10.8544 6.17957 10.8544H8.00605C8.25824 10.8544 8.46267 10.6492 8.46267 10.396V8.5627C8.46267 8.30957 8.25824 8.10437 8.00605 8.10437Z" fill="white"/>
<path d="M6.17957 8.21895C6.08874 8.21895 6.00163 8.25517 5.93741 8.31964C5.87318 8.3841 5.8371 8.47154 5.8371 8.5627V10.396C5.8371 10.4872 5.87318 10.5746 5.93741 10.6391C6.00163 10.7036 6.08874 10.7398 6.17957 10.7398H8.00605C8.09688 10.7398 8.18399 10.7036 8.24821 10.6391C8.31244 10.5746 8.34852 10.4872 8.34852 10.396V8.5627C8.34852 8.47154 8.31244 8.3841 8.24821 8.31964C8.18399 8.25517 8.09688 8.21895 8.00605 8.21895H6.17957ZM6.17957 8.10437H8.00605C8.12715 8.10437 8.2433 8.15266 8.32893 8.23861C8.41456 8.32457 8.46267 8.44115 8.46267 8.5627V10.396C8.46267 10.5176 8.41456 10.6342 8.32893 10.7201C8.2433 10.8061 8.12715 10.8544 8.00605 10.8544H6.17957C6.05846 10.8544 5.94232 10.8061 5.85669 10.7201C5.77105 10.6342 5.72295 10.5176 5.72295 10.396V8.5627C5.72295 8.44115 5.77105 8.32457 5.85669 8.23861C5.94232 8.15266 6.05846 8.10437 6.17957 8.10437Z" fill="#4C3F37"/>
<path d="M3.66699 12.6875H20.3337V14.9792H3.66699V12.6875Z" fill="#4C3F37"/>
</svg>
