<svg width="24" height="24" viewBox="0 0 24 24" fill="none" xmlns="http://www.w3.org/2000/svg">
<path d="M21.1841 19.4377L19.4883 4.02222C19.4704 3.88079 19.4135 3.74712 19.324 3.63616C19.223 3.51025 19.0993 3.40439 18.9593 3.32407C18.7996 3.23096 18.6277 3.16068 18.4485 3.11528C18.2506 3.06435 18.0471 3.03873 17.8428 3.03907H6.15729C5.95294 3.03873 5.74937 3.06434 5.55148 3.11528C5.37231 3.16069 5.20039 3.23097 5.04073 3.32407C4.90073 3.40439 4.77703 3.51025 4.67604 3.63616C4.58652 3.74712 4.52962 3.88079 4.51169 4.02222L2.81594 19.4377C2.7933 19.638 2.82319 19.8407 2.90266 20.0259C2.985 20.2135 3.10906 20.3799 3.26538 20.5124C3.43748 20.6586 3.63568 20.771 3.84954 20.8436C4.08984 20.9257 4.34222 20.9669 4.59616 20.9655H19.4039C19.6578 20.9669 19.9102 20.9257 20.1505 20.8436C20.3644 20.771 20.5626 20.6586 20.7347 20.5124C20.891 20.3799 21.015 20.2135 21.0974 20.0259C21.1769 19.8407 21.2067 19.638 21.1841 19.4377Z" fill="#F2F2F2"/>
<path d="M19.3331 4.02222C19.3263 3.96181 19.3107 3.90272 19.2868 3.84681C19.2615 3.78758 19.2288 3.73174 19.1896 3.68059C19.1469 3.62487 19.0985 3.57375 19.0452 3.52806C18.9868 3.47783 18.9241 3.43284 18.8577 3.39363C18.7864 3.35142 18.712 3.31469 18.6351 3.28375C18.5548 3.25138 18.4724 3.22445 18.3885 3.20312C18.3019 3.18104 18.2139 3.16441 18.1252 3.15334C18.0346 3.142 17.9434 3.13627 17.8522 3.13619H6.14956C6.05829 3.13627 5.96712 3.142 5.87656 3.15334C5.78782 3.16441 5.69987 3.18104 5.61321 3.20312C5.52931 3.22445 5.44694 3.25138 5.36665 3.28375C5.28976 3.31469 5.21533 3.35142 5.14399 3.39363C5.07767 3.43284 5.01492 3.47783 4.95649 3.52806C4.9032 3.57375 4.85481 3.62487 4.81212 3.68059C4.77292 3.73174 4.74027 3.78758 4.7149 3.84681C4.69102 3.90272 4.67542 3.96181 4.66859 4.02222L3.00799 19.4377C2.98895 19.6146 3.01524 19.7935 3.0844 19.9575C3.11973 20.0412 3.16496 20.1204 3.21912 20.1933C3.27635 20.2703 3.34197 20.3407 3.41478 20.4032C3.49147 20.469 3.57461 20.5269 3.66293 20.576C3.75493 20.6273 3.85139 20.67 3.95112 20.7038C4.05497 20.7391 4.16159 20.7656 4.26987 20.783C4.38243 20.8012 4.49626 20.8103 4.61028 20.8103H19.391C19.505 20.8103 19.6188 20.8012 19.7314 20.783C19.8397 20.7656 19.9463 20.7391 20.0501 20.7038C20.1499 20.67 20.2463 20.6273 20.3383 20.576C20.4267 20.5269 20.5099 20.469 20.5866 20.4032C20.6594 20.3407 20.725 20.2703 20.7822 20.1933C20.8364 20.1204 20.8816 20.0412 20.917 19.9575C20.9861 19.7935 21.0124 19.6146 20.9934 19.4377L19.3331 4.02222ZM19.4891 4.02222L21.1849 19.4377C21.2068 19.6344 21.1782 19.8333 21.1018 20.0159C21.0628 20.109 21.0127 20.1972 20.9527 20.2784C20.8892 20.3642 20.8164 20.4426 20.7355 20.5122C20.6502 20.5855 20.5578 20.6501 20.4596 20.7048C20.3572 20.7619 20.2499 20.8095 20.1389 20.8472C20.0232 20.8864 19.9044 20.9159 19.7838 20.9353C19.6584 20.9555 19.5317 20.9656 19.4047 20.9655H4.59696C4.53303 20.9655 4.46953 20.963 4.40646 20.958C4.3434 20.953 4.28112 20.9455 4.21962 20.9356C4.15812 20.9256 4.09756 20.9133 4.03793 20.8985C3.97831 20.8838 3.9199 20.8667 3.86271 20.8472C3.80559 20.8277 3.75012 20.806 3.69631 20.7821C3.64249 20.7582 3.59062 20.7322 3.54068 20.7041C3.49068 20.676 3.44278 20.646 3.39696 20.6139C3.35168 20.5823 3.30806 20.5483 3.26628 20.5122C3.22556 20.477 3.18678 20.4396 3.15012 20.4002C3.11443 20.362 3.08093 20.3217 3.04981 20.2797C3.01942 20.2385 2.99149 20.1956 2.96618 20.1512C2.94131 20.1074 2.91914 20.0622 2.89981 20.0158C2.88072 19.97 2.86453 19.923 2.85134 19.8752C2.82519 19.7804 2.8112 19.6828 2.80971 19.5845C2.80895 19.5353 2.81126 19.486 2.81665 19.4371L4.5124 4.02222C4.51606 3.98922 4.52217 3.95653 4.53068 3.92444C4.53941 3.89161 4.55044 3.85944 4.56368 3.82816C4.57726 3.79592 4.59292 3.76461 4.61056 3.73441C4.62914 3.70273 4.64962 3.67221 4.67187 3.643C4.69525 3.61249 4.72028 3.58329 4.74687 3.55553C4.77381 3.52716 4.80274 3.49962 4.83368 3.47294C4.86462 3.44625 4.89743 3.42053 4.93212 3.39578C4.96681 3.37078 5.00328 3.34703 5.04153 3.32453C5.07978 3.30203 5.11943 3.28056 5.16049 3.26013C5.20156 3.23988 5.24393 3.22091 5.28762 3.20322C5.33131 3.18553 5.37609 3.16919 5.42196 3.15419C5.46784 3.13919 5.51471 3.12559 5.56259 3.11341C5.61046 3.10122 5.65893 3.09034 5.70799 3.08078C5.75699 3.07172 5.80646 3.06406 5.8564 3.05781C5.90634 3.05156 5.95646 3.04688 6.00678 3.04375C6.05709 3.04063 6.10749 3.03906 6.15799 3.03906H17.8435C17.9448 3.03905 18.046 3.04531 18.1466 3.05781C18.2451 3.07002 18.3427 3.0884 18.439 3.11284C18.5321 3.13646 18.6236 3.16631 18.7128 3.20219C18.7982 3.2365 18.8809 3.27724 18.9601 3.32406C19.0339 3.36755 19.1038 3.41746 19.1688 3.47322C19.228 3.52396 19.2818 3.58073 19.3293 3.64262C19.3729 3.69944 19.4093 3.76148 19.4376 3.82731C19.4641 3.88943 19.4815 3.95509 19.4891 4.02222H19.4891Z" fill="#4C3F37"/>
<path d="M17.5319 6.93655L17.3999 5.2423C17.3945 5.184 17.3729 5.12838 17.3375 5.08171C17.2979 5.02921 17.2484 4.98486 17.1919 4.95112C17.1274 4.91202 17.0575 4.8825 16.9845 4.86346C16.9035 4.84197 16.8201 4.83116 16.7364 4.8313H14.2106C14.1279 4.83101 14.0455 4.84182 13.9657 4.86346C13.8954 4.8822 13.8284 4.91181 13.7672 4.95121C13.7142 4.98479 13.6691 5.02928 13.6347 5.08171C13.6037 5.12948 13.5877 5.18538 13.5886 5.2423L13.6274 6.93655C13.6293 6.99705 13.6484 7.05575 13.6823 7.10587C13.7202 7.1614 13.769 7.20864 13.8257 7.24471C13.8906 7.28653 13.9615 7.31815 14.036 7.33846C14.1193 7.36159 14.2054 7.37319 14.2919 7.37296H16.9112C16.9965 7.37336 17.0814 7.36174 17.1635 7.33846C17.2352 7.31851 17.3031 7.28683 17.3644 7.24471C17.4174 7.20873 17.4617 7.16127 17.4938 7.10587C17.5231 7.05447 17.5363 6.99552 17.5319 6.93655Z" fill="white"/>
<path d="M17.2411 5.2423C17.2394 5.22148 17.2348 5.20102 17.2272 5.18155C17.2193 5.16105 17.2087 5.14165 17.1959 5.1238C17.182 5.10443 17.166 5.08661 17.1483 5.07064C17.1288 5.05314 17.1078 5.03745 17.0855 5.02377C17.0615 5.00901 17.0364 4.99616 17.0105 4.98533C16.9832 4.97403 16.9553 4.96463 16.9267 4.95721C16.8972 4.94946 16.8672 4.94363 16.8369 4.93977C16.8058 4.93577 16.7745 4.93376 16.7432 4.93377H14.2139C14.1829 4.93377 14.1519 4.93577 14.1212 4.93977C14.0915 4.9436 14.0621 4.94942 14.0332 4.95721C14.0055 4.96457 13.9785 4.97397 13.9522 4.98533C13.9274 4.99609 13.9036 5.00895 13.881 5.02377C13.8601 5.03741 13.8407 5.05311 13.823 5.07064C13.8068 5.08663 13.7926 5.10447 13.7807 5.1238C13.7696 5.14179 13.761 5.16122 13.7552 5.18155C13.7496 5.2013 13.747 5.22178 13.7475 5.2423L13.7902 6.93655C13.7908 6.95825 13.7946 6.97976 13.8013 7.00039C13.8084 7.02189 13.8182 7.04237 13.8306 7.06133C13.844 7.08177 13.8598 7.10064 13.8774 7.11758C13.8966 7.13616 13.9175 7.15287 13.9399 7.16745C13.964 7.18315 13.9893 7.19682 14.0156 7.20833C14.0433 7.22046 14.0717 7.23055 14.1008 7.23852C14.1311 7.24684 14.1618 7.25311 14.1929 7.25727C14.2248 7.26152 14.257 7.26365 14.2892 7.26364H16.9037C16.9357 7.26366 16.9676 7.26153 16.9993 7.25727C17.0298 7.25315 17.0599 7.24688 17.0895 7.23852C17.1176 7.23061 17.1451 7.22052 17.1717 7.20833C17.1968 7.19689 17.2207 7.18321 17.2433 7.16745C17.2642 7.1529 17.2834 7.13618 17.3007 7.11758C17.3166 7.10058 17.3303 7.08169 17.3415 7.06133C17.352 7.0422 17.3598 7.02168 17.3647 7.00039C17.3694 6.97946 17.371 6.95794 17.3693 6.93655L17.2411 5.2423ZM17.3999 5.2423L17.5319 6.93655C17.5341 6.96507 17.5321 6.99375 17.5259 7.02167C17.5195 7.05007 17.5092 7.07742 17.4952 7.10295C17.4803 7.13009 17.4621 7.15528 17.4411 7.17795C17.418 7.20279 17.3923 7.2251 17.3646 7.24452C17.3344 7.26558 17.3025 7.28388 17.269 7.29917C17.2336 7.31545 17.1969 7.32893 17.1593 7.33949C17.1199 7.35063 17.0796 7.35896 17.039 7.36442C16.9966 7.37012 16.954 7.37297 16.9113 7.37295H14.2917C14.2487 7.37296 14.2057 7.37011 14.1631 7.36442C14.1216 7.35891 14.0805 7.35057 14.0402 7.33949C14.0013 7.32885 13.9633 7.31537 13.9265 7.29917C13.8914 7.28378 13.8576 7.2655 13.8255 7.24452C13.7957 7.22505 13.7678 7.20276 13.7422 7.17795C13.7189 7.15534 13.6982 7.13018 13.6805 7.10295C13.664 7.07766 13.6509 7.05034 13.6416 7.02167C13.6326 6.99416 13.6277 6.96548 13.6269 6.93655L13.5886 5.2423C13.588 5.21496 13.5915 5.18768 13.5991 5.16139C13.6069 5.1343 13.6184 5.1084 13.6332 5.08442C13.6491 5.0587 13.668 5.03494 13.6895 5.01364C13.7131 4.99026 13.7391 4.96931 13.7669 4.95111C13.7971 4.9314 13.829 4.9143 13.8622 4.90002C13.8971 4.88488 13.9331 4.87235 13.9699 4.86252C14.0084 4.85212 14.0475 4.84432 14.0871 4.83917C14.128 4.83389 14.1693 4.83127 14.2106 4.8313H16.7364C16.7779 4.8313 16.8193 4.83392 16.8605 4.83917C16.9008 4.8443 16.9407 4.85204 16.98 4.86233C17.018 4.87223 17.0552 4.88476 17.0915 4.89983C17.1261 4.91424 17.1596 4.93136 17.1916 4.95102C17.2213 4.96928 17.2494 4.99021 17.2753 5.01355C17.299 5.0348 17.3203 5.05853 17.339 5.08433C17.3561 5.10808 17.3702 5.13391 17.3809 5.16121C17.3911 5.18717 17.3975 5.21449 17.3999 5.2423Z" fill="#4C3F37"/>
<path d="M11.0779 3.03906L10.8314 20.9657H6.93457L8.00276 3.03906H11.0779Z" fill="#4C3F37"/>
</svg>
