<svg width="24" height="24" viewBox="0 0 24 24" fill="none" xmlns="http://www.w3.org/2000/svg">
<path d="M7.12615 0.5H16.8739C17.2388 0.5 17.5889 0.645392 17.8469 0.904193C18.105 1.16299 18.25 1.514 18.25 1.88V22.12C18.25 22.486 18.105 22.837 17.8469 23.0958C17.5889 23.3546 17.2388 23.5 16.8739 23.5H7.12615C6.76117 23.5 6.41114 23.3546 6.15306 23.0958C5.89499 22.837 5.75 22.486 5.75 22.12V1.88C5.75 1.514 5.89499 1.16299 6.15306 0.904193C6.41114 0.645392 6.76117 0.5 7.12615 0.5Z" fill="#FAFAFA"/>
<path d="M18.1926 21.4301H5.80729V21.3151H18.1926V21.4301Z" fill="#4C3F37"/>
<path d="M7.12615 0.615C6.79158 0.615 6.47073 0.748276 6.23415 0.98551C5.99758 1.22274 5.86468 1.5445 5.86468 1.88V22.12C5.86468 22.4555 5.99758 22.7773 6.23415 23.0145C6.47073 23.2517 6.79158 23.385 7.12615 23.385H16.8739C17.2084 23.385 17.5293 23.2517 17.7658 23.0145C18.0024 22.7773 18.1353 22.4555 18.1353 22.12V1.88C18.1353 1.5445 18.0024 1.22274 17.7658 0.98551C17.5293 0.748276 17.2084 0.615 16.8739 0.615H7.12615ZM7.12615 0.5H16.8739C17.2388 0.5 17.5889 0.645392 17.8469 0.904193C18.105 1.16299 18.25 1.514 18.25 1.88V22.12C18.25 22.486 18.105 22.837 17.8469 23.0958C17.5889 23.3546 17.2388 23.5 16.8739 23.5H7.12615C6.76117 23.5 6.41114 23.3546 6.15306 23.0958C5.89499 22.837 5.75 22.486 5.75 22.12V1.88C5.75 1.514 5.89499 1.16299 6.15306 0.904193C6.41114 0.645392 6.76117 0.5 7.12615 0.5Z" fill="#4C3F37"/>
<path d="M11.3385 8.16663V8.43106H11.8673V8.16663H11.3385Z" fill="#4C3F37"/>
<path d="M12.6603 8.16663H12.3958V8.43106H12.6603V8.16663Z" fill="#4C3F37"/>
<path d="M14.2475 8.43106H15.5693V9.75278H14.2475V8.43106ZM13.9831 8.16663V10.0172H15.8337V8.16663H13.9831Z" fill="#4C3F37"/>
<path d="M10.5456 8.43095H10.2813V8.69527H10.5456V8.43095Z" fill="#4C3F37"/>
<path d="M10.8099 8.16663V8.69527H11.0743V8.16663H10.8099Z" fill="#4C3F37"/>
<path d="M14.5117 8.69527V9.48835H15.3048V8.69527H14.5117Z" fill="#4C3F37"/>
<path d="M9.48843 9.48835V8.69527H8.69532V9.48835H9.48843Z" fill="#4C3F37"/>
<path d="M10.81 9.75267V9.22392H11.0744V8.95959H10.2813V9.22392H10.5456V9.48824H10.2813V10.017H10.5456V9.75267H10.81Z" fill="#4C3F37"/>
<path d="M8.431 8.43106H9.75289V9.75278H8.431V8.43106ZM8.16667 8.16663V10.0172H10.0172V8.16663H8.16667Z" fill="#4C3F37"/>
<path d="M11.3399 10.017H11.6042V9.75256H11.8685V9.48824H11.0755V9.75256H11.3399V10.017Z" fill="#4C3F37"/>
<path d="M11.3388 10.0169H11.0744V9.75256L10.81 9.75267L10.81 10.0169H10.5457V10.2812H9.75261V10.5455H10.0169V10.8098H9.75261V11.0742H10.5457V10.5456H10.81V10.2813H11.0744V10.5456H11.3387L11.3388 10.0169Z" fill="#4C3F37"/>
<path d="M15.0404 10.2825H14.776V10.5468H15.0404V10.2825Z" fill="#4C3F37"/>
<path d="M15.569 10.2825H15.3047V10.5468H15.569V10.2825Z" fill="#4C3F37"/>
<path d="M8.16667 10.2825V10.8113H8.431V10.5468H9.22411V10.8112H9.75289V10.5468H9.48856V10.2825H8.16667Z" fill="#4C3F37"/>
<path d="M10.8099 11.0742H11.0742V10.5455H10.8099V11.0742Z" fill="#4C3F37"/>
<path d="M11.6029 10.5455H11.3385V10.8099H11.6029V10.5455Z" fill="#4C3F37"/>
<path d="M12.396 10.0172H12.1317V9.75278H12.396V10.0172ZM12.9248 8.16663V8.43106H12.6603L12.6603 8.69538H13.1891V8.43106H13.4534V8.69538H13.1891V9.22414H12.9248V8.9597H12.396L12.3958 8.43106H12.1317V8.69538H11.8673V8.9597H11.6029V8.69538H11.3385V9.22414H12.396V9.48846H12.1317V9.75278H11.8673V10.2815H11.6029V10.5459H11.8672V11.0745H12.9247V10.8103H13.4534V11.0745H13.9822V10.8103H13.7178V10.5457H13.9821V10.2814H13.7178V9.75278H13.4534V10.5459H13.1891V10.2814H12.6603V10.5457H12.396V10.8102H12.1317V10.5457H12.396V10.2814H12.6603V9.75278H12.9247V10.0172H13.189V9.48835H13.7178V9.22414H13.4534V8.9597H13.7178V8.16663H12.9248Z" fill="#4C3F37"/>
<path d="M14.7762 10.8113L14.776 10.5468H14.5119V10.2825H14.2474V10.5468H13.9831V10.8112L14.7762 10.8113Z" fill="#4C3F37"/>
<path d="M15.8335 10.5455H15.569V10.81H15.8335V10.5455Z" fill="#4C3F37"/>
<path d="M8.43099 10.8099V11.0742H9.2241V10.8099H8.43099Z" fill="#4C3F37"/>
<path d="M13.4533 11.3398V11.0755H12.9245V11.3398H13.4533Z" fill="#4C3F37"/>
<path d="M14.5117 11.3398V11.0755H13.9831V11.3398H14.5117Z" fill="#4C3F37"/>
<path d="M15.569 11.0755H15.3047V11.3398H15.569V11.0755Z" fill="#4C3F37"/>
<path d="M8.431 11.3398H8.16667V11.6042H8.431V11.3398Z" fill="#4C3F37"/>
<path d="M8.95977 11.3398H8.69533V11.6041L8.431 11.6042L8.43099 12.1329H8.69533V11.8686H8.95977V11.3398Z" fill="#4C3F37"/>
<path d="M10.0171 11.3398H9.22396V11.6041H10.0171V11.3398Z" fill="#4C3F37"/>
<path d="M11.0744 11.6041V11.3398H10.2813V11.8686H10.5456V11.6041H11.0744Z" fill="#4C3F37"/>
<path d="M12.9258 11.3398H12.6615V11.6041H12.9258V11.3398Z" fill="#4C3F37"/>
<path d="M15.3048 11.6042L15.3047 11.3398H15.0404V11.0755H14.776V11.6042H15.3048Z" fill="#4C3F37"/>
<path d="M14.7761 11.6028H14.5117V11.8671H14.7761V11.6028Z" fill="#4C3F37"/>
<path d="M15.8335 11.6028H15.569V11.8671H15.8335V11.6028Z" fill="#4C3F37"/>
<path d="M10.0169 11.8684H9.75261V12.1328H10.0169V11.8684Z" fill="#4C3F37"/>
<path d="M15.3047 12.1328V11.8684H14.776V12.1328H15.3047Z" fill="#4C3F37"/>
<path d="M8.95977 11.8686L8.95978 12.3972H8.16667V13.7189H8.431V12.6615H9.22411V12.3972H9.48844V12.1328H9.22411V11.8684L8.95977 11.8686Z" fill="#4C3F37"/>
<path d="M10.5456 12.1315H10.2813V12.3958H10.5456V12.1315Z" fill="#4C3F37"/>
<path d="M13.4544 12.1315H13.1901V12.3958H13.4544V12.1315Z" fill="#4C3F37"/>
<path d="M15.569 12.1315H15.3047V12.3958H15.569V12.1315Z" fill="#4C3F37"/>
<path d="M10.0169 12.6601V12.3958H9.48829V12.6601H10.0169Z" fill="#4C3F37"/>
<path d="M11.3387 12.6615V12.1328H11.603V11.8684L10.5456 11.8686L10.5456 12.1328H11.0744V12.3971H10.8099V12.6614L11.3387 12.6615Z" fill="#4C3F37"/>
<path d="M14.776 12.3958V12.6601H15.0404V13.1889H15.3047L15.3047 12.3958L14.776 12.3958Z" fill="#4C3F37"/>
<path d="M9.48829 12.6601L9.22396 12.6601V12.9244H9.48829L9.48829 12.6601Z" fill="#4C3F37"/>
<path d="M11.6029 12.6601H11.3385V12.9244H11.6029V12.6601Z" fill="#4C3F37"/>
<path d="M15.8335 12.6601H15.569V12.9244H15.8335V12.6601Z" fill="#4C3F37"/>
<path d="M9.22396 12.9244L8.95964 12.9244V13.1888H9.22397L9.22396 12.9244Z" fill="#4C3F37"/>
<path d="M10.0171 13.1888V12.9244L9.48829 12.9244V13.1888H9.22397L9.22396 13.4531H9.75274V13.1888H10.0171Z" fill="#4C3F37"/>
<path d="M11.8685 12.9244H11.6042V13.1888H11.8685V12.9244Z" fill="#4C3F37"/>
<path d="M11.0744 12.9244H10.81V12.6601H10.5456V12.9244H10.2813V13.1888H10.81V13.4531H11.0744V12.9244Z" fill="#4C3F37"/>
<path d="M12.1317 13.4532H11.6029V13.1888H11.3385V13.7175H12.396V13.9818H11.8673V14.5106H12.1317V14.2462H12.396V14.5105H12.6603V13.9818H13.1891V13.7175H12.9248V13.4532H12.396V12.9244H12.1317V13.4532Z" fill="#4C3F37"/>
<path d="M14.5109 15.3051H14.7752V15.5695H14.5109V15.3051ZM13.7178 13.719H14.5109V14.5121H13.7178V13.719ZM13.9821 12.3972V12.1329H14.2465V12.6616H13.9822V12.926H14.2465V13.4547H13.7178V12.3972H13.9821ZM11.3385 11.0755V11.6042H11.8673V12.3973H11.6029V12.6616H11.8672V12.926H12.1315V12.3972H12.3959V12.1329H13.189V11.8686H13.7178V12.3972L13.4534 12.3973V12.6616H12.9248V12.3972H12.6603V12.6615H12.396V12.9258H12.6603V13.1902H12.9247V12.926H13.4534V13.9834H13.1891V14.5121H13.4534V14.7762H14.2465V15.0405H13.9822V15.3048H14.2465V15.8336H15.304V15.5695H15.0394V15.3051H15.3037V15.5694H15.5681V15.0408H15.8324V14.2477H15.304V14.512H15.0394V14.7762H14.7753V15.0405H14.5109V14.7762H14.7753L14.7752 14.2477H15.304V13.9834H15.8328V13.4546H15.5683V13.1903H15.304V13.4546H15.0394V13.7189H14.7753V13.1903H14.5109V12.926H14.7752V12.6616H14.5109V12.3972H14.7752V12.1329H14.5109V11.8686H14.2465V11.6042H13.7178V11.3398H13.4533L13.4534 11.6041H12.9248V11.8684H12.6603V11.6042H12.396V11.8686H12.1317V11.3398H11.6029V11.0755H11.3385Z" fill="#4C3F37"/>
<path d="M8.69532 13.4544V13.7187H9.2241V13.4544H8.69532Z" fill="#4C3F37"/>
<path d="M9.75261 13.4544V13.7187H10.2814V13.4544H9.75261Z" fill="#4C3F37"/>
<path d="M10.8099 13.4544H10.5456V13.7187H10.8099V13.4544Z" fill="#4C3F37"/>
<path d="M11.0742 13.7174H10.8099V13.9817H11.0742V13.7174Z" fill="#4C3F37"/>
<path d="M8.431 14.2461H9.75289V15.5679H8.431V14.2461ZM8.16667 13.9817V15.8322H10.0172V13.9817H8.16667Z" fill="#4C3F37"/>
<path d="M14.2474 13.9817H13.9831V14.2461H14.2474V13.9817Z" fill="#4C3F37"/>
<path d="M11.3387 14.2462H11.603V13.9817H11.0742L11.0744 14.246H10.81L10.8099 13.9817H10.5456V13.7174H10.2813V14.2462H10.5456V14.5105H10.8099V14.7748H11.3387V14.2462Z" fill="#4C3F37"/>
<path d="M8.69532 14.5104V15.3035H9.48843V14.5104H8.69532Z" fill="#4C3F37"/>
<path d="M10.2813 14.5104V15.8321H11.0744V15.5679H10.8099V15.3035H11.0744V15.039H10.8099V14.7748L10.5457 14.7748L10.5456 14.5105L10.2813 14.5104Z" fill="#4C3F37"/>
<path d="M12.6603 14.5105V15.0391H11.8673V14.7748L11.3387 14.7748L11.3385 15.0391H11.6029V15.3035H11.3385V15.8322H11.6029V15.5679H11.8672V15.3035H12.396V15.5679H12.6603V15.3035H12.9247V15.039H13.189V14.5104L12.6603 14.5105Z" fill="#4C3F37"/>
<path d="M13.1901 15.0403V15.8334H13.4546V15.5691H13.7189V15.3046H13.4546V15.0403H13.1901Z" fill="#4C3F37"/>
<path d="M11.8672 15.5677V15.832H12.396V15.5677H11.8672Z" fill="#4C3F37"/>
<path d="M12.9258 15.5677H12.6615V15.832H12.9258V15.5677Z" fill="#4C3F37"/>
<path d="M13.9831 15.5677H13.7188V15.832H13.9831V15.5677Z" fill="#4C3F37"/>
</svg>
