<svg width="116" height="180" viewBox="0 0 116 180" fill="none" xmlns="http://www.w3.org/2000/svg">
<rect x="0.5" y="0.5" width="115" height="179" fill="white"/>
<rect x="0.5" y="0.5" width="115" height="179" stroke="#757575"/>
<path d="M56.7891 57.3516V60.8672H42.7656V72.9375H38.4688V60.8672H24.6016V57.3516H56.7891ZM53.8203 39.6562V43.0938H43.2344C43.4883 46.9609 48.1367 50.6719 55.1094 51.5703L53.5469 54.9688C47.5312 54.1289 42.8438 51.375 40.6953 47.5469C38.5469 51.375 33.8594 54.1289 27.9219 54.9688L26.2812 51.5703C33.2148 50.6719 37.8633 46.9609 38.1953 43.0938H27.5703V39.6562H53.8203ZM91.3984 55.3203V58.7969H77.7656V65.2812H73.4688V58.7969H59.1328V55.3203H91.3984ZM87.2578 39.2656V52.0391H63.2344V39.2656H87.2578ZM67.4531 42.6641V48.6406H82.9609V42.6641H67.4531ZM87.8438 68.7578V72.2734H63.0391V62.0391H67.375V68.7578H87.8438Z" fill="black"/>
<path d="M28.6602 93.4922V128.609H36.6465V134.5H12.6309V128.609H21.2969V100.855L12.6309 106.746V99.666L21.6934 93.4922H28.6602ZM58 135.066C48.8242 135.066 43.4434 127.873 43.4434 115.525V112.467C43.4434 100.119 48.8242 92.9258 58 92.9258C67.1758 92.9258 72.5 100.119 72.5 112.467V115.525C72.5 127.873 67.1758 135.066 58 135.066ZM58 128.893C62.9844 128.893 65.5332 124.361 65.5332 115.582V112.467C65.5332 103.631 62.9844 99.0996 58 99.0996C53.0156 99.0996 50.4668 103.631 50.4668 112.467V115.582C50.4668 124.361 53.0156 128.893 58 128.893ZM91.418 135.066C82.2422 135.066 76.8613 127.873 76.8613 115.525V112.467C76.8613 100.119 82.2422 92.9258 91.418 92.9258C100.594 92.9258 105.918 100.119 105.918 112.467V115.525C105.918 127.873 100.594 135.066 91.418 135.066ZM91.418 128.893C96.4023 128.893 98.9512 124.361 98.9512 115.582V112.467C98.9512 103.631 96.4023 99.0996 91.418 99.0996C86.4336 99.0996 83.8848 103.631 83.8848 112.467V115.582C83.8848 124.361 86.4336 128.893 91.418 128.893Z" fill="black"/>
</svg>
