<svg width="200" height="308" viewBox="0 0 200 308" fill="none" xmlns="http://www.w3.org/2000/svg">
<rect x="0.5" y="0.5" width="199" height="307" fill="white"/>
<rect x="0.5" y="0.5" width="199" height="307" stroke="#757575"/>
<path d="M97.9717 108.151V114.04H74.4824V134.258H67.2852V114.04H44.0576V108.151H97.9717ZM92.999 78.5117V84.2695H75.2676C75.6929 90.7471 83.479 96.9629 95.1582 98.4678L92.541 104.16C82.4648 102.753 74.6133 98.1406 71.0146 91.7285C67.416 98.1406 59.5645 102.753 49.6191 104.16L46.8711 98.4678C58.4849 96.9629 66.271 90.7471 66.8271 84.2695H49.0303V78.5117H92.999ZM155.942 104.749V110.572H133.107V121.434H125.91V110.572H101.897V104.749H155.942ZM149.007 77.8574V99.2529H108.768V77.8574H149.007ZM115.834 83.5498V93.5605H141.81V83.5498H115.834ZM149.988 127.257V133.146H108.44V116.003H115.703V127.257H149.988Z" fill="black"/>
<path d="M58.0137 164.816V215.07H69.4424V223.5H35.0752V215.07H47.4766V175.354L35.0752 183.783V173.651L48.0439 164.816H58.0137ZM100 224.311C86.8691 224.311 79.1689 214.017 79.1689 196.347V191.97C79.1689 174.3 86.8691 164.006 100 164.006C113.131 164.006 120.75 174.3 120.75 191.97V196.347C120.75 214.017 113.131 224.311 100 224.311ZM100 215.476C107.133 215.476 110.78 208.991 110.78 196.428V191.97C110.78 179.325 107.133 172.841 100 172.841C92.8672 172.841 89.2197 179.325 89.2197 191.97V196.428C89.2197 208.991 92.8672 215.476 100 215.476ZM147.822 224.311C134.691 224.311 126.991 214.017 126.991 196.347V191.97C126.991 174.3 134.691 164.006 147.822 164.006C160.953 164.006 168.572 174.3 168.572 191.97V196.347C168.572 214.017 160.953 224.311 147.822 224.311ZM147.822 215.476C154.955 215.476 158.603 208.991 158.603 196.428V191.97C158.603 179.325 154.955 172.841 147.822 172.841C140.689 172.841 137.042 179.325 137.042 191.97V196.428C137.042 208.991 140.689 215.476 147.822 215.476Z" fill="black"/>
</svg>
